PathFileType	4	(X/Y/Z)	40_2_102_p1_0-297_filt_butterworth.trc
DataRate	CameraRate	NumFrames	NumMarkers	Units	OrigDataRate	OrigDataStartFrame	OrigNumFrames
53.0	53.0	6	27	m	53.0	148	297
Frame#	Time	RHip			RKnee			RAnkle			RBigToe			RSmallToe			RHeel			LHip			LKnee			LAnkle			LBigToe			LSmallToe			LHeel			Neck			Head			Nose			RShoulder			RElbow			RWrist			RThumb			RIndex			RPinky			LShoulder			LElbow			LWrist			LThumb			LIndex			LPinky			
		X1	Y1	Z1	X2	Y2	Z2	X3	Y3	Z3	X4	Y4	Z4	X5	Y5	Z5	X6	Y6	Z6	X7	Y7	Z7	X8	Y8	Z8	X9	Y9	Z9	X10	Y10	Z10	X11	Y11	Z11	X12	Y12	Z12	X13	Y13	Z13	X14	Y14	Z14	X15	Y15	Z15	X16	Y16	Z16	X17	Y17	Z17	X18	Y18	Z18	X19	Y19	Z19	X20	Y20	Z20	X21	Y21	Z21	X22	Y22	Z22	X23	Y23	Z23	X24	Y24	Z24	X25	Y25	Z25	X26	Y26	Z26	X27	Y27	Z27	
148	2.792452830188679	0.3265253287504403	0.5431340344020614	0.8465852978808454	0.2995300732949313	0.6401145797826215	1.284397034926767	0.31006960412698376	0.751130457818877	1.6567059044445132	0.29902979259482476	0.6503415583590267	1.7102501928374099	0.3596470892784278	0.6815482331135644	1.7116522606990343	0.3104297373708073	0.815774305361973	1.7229025777557154	0.1614361644487035	0.5551521363806396	0.851188658984954	0.1436123523794482	0.5659913407069387	1.2684930527249159	0.10549635869396622	0.8362776448871596	1.7031345770724458	0.13918039470468752	0.6214631338575756	1.6990230254494616	0.08320492005862579	0.6928745861533006	1.7168335583955514	0.12495532911443388	0.8740899622624437	1.732356710662216	0.3123022547944476	0.4252281382631348	0.3627254428463102	0.366708942329589	0.2692419239776416	0.12777214702403938	0.368790156945198	0.2817106620455722	0.29242214798375815	0.4379688034769254	0.4798193916427376	0.43990636845608444	0.4551037399281534	0.4499720841927026	0.6870324125759237	0.6689216550799251	0.4499516759416785	0.6350302808038698	0.7641048528289712	0.4516048179643433	0.5538124531303839	0.7743685516762173	0.4741004648584044	0.5436815683184427	0.7650069054920182	0.4783515818526687	0.5953204486049286	0.16744400483820798	0.4443342870473304	0.3913769593414007	0.08999326233495378	0.4975035591109531	0.6605169874803161	0.13154402845749555	0.4427535122951263	0.9108862183047431	0.19008442351386662	0.39231028771268556	0.992128425763727	0.1697574794930368	0.40603594952339067	1.0156631356014565	0.12152219820028248	0.4236064086020771	1.0119327102687596
149	2.811320754716981	0.32697091395607303	0.5401581719501216	0.8473093555928789	0.2988656643341077	0.6329614777968675	1.2808464322143442	0.3096633311653788	0.7516886497397895	1.6569708654657218	0.2989383319505392	0.6475400717432285	1.7089888880032142	0.35975079961203066	0.68150656545052	1.7116678524390119	0.30895151215559197	0.8182628777338552	1.7206398624268764	0.16261247299374193	0.5467524187759987	0.8505819105846296	0.14223311015062556	0.560170419929415	1.2674919836224294	0.10485488065528357	0.8303285318072742	1.7030694296863127	0.13902296170480152	0.6159497638018456	1.6956968237527772	0.0837086163514163	0.6916799851561111	1.716601151749255	0.12467566451603634	0.874348453962801	1.7321559884462276	0.3125592430558851	0.4272355425346608	0.364643639643525	0.36925950407074526	0.2701433254982116	0.131472395595289	0.37281625919594996	0.2849677185567248	0.2956905290240954	0.43800875169531495	0.4903925886429874	0.44195420321467205	0.4566460052240156	0.45129973114403565	0.687752647785909	0.6688697842410378	0.4631490888653317	0.6347322083844751	0.7690076353170495	0.47803951962167196	0.5559553643471487	0.7813481009924437	0.5031015275764105	0.5418727824912752	0.7700710457553438	0.5071823613793317	0.5989261648237592	0.16753770791852962	0.44575034756030507	0.3933166691614456	0.08991071064858877	0.49714040878443844	0.6615273715194119	0.12868174189503107	0.4424129560982981	0.9112049167972242	0.18309898187230347	0.4001209580182802	0.9934958996192464	0.16164724209317782	0.4247471605081486	1.0227679907919767	0.11654844102551343	0.4229066560896984	1.0143948004644485
150	2.830188679245283	0.3271244123864951	0.5394427148603176	0.8475543619374086	0.2999840097900443	0.6249314702715774	1.275206964781282	0.309090151911535	0.7522766299849539	1.6572102288218429	0.29870014323691446	0.6477961467051492	1.707870713393893	0.35990996654787083	0.6800288582556736	1.7111373397848786	0.30580610671125463	0.8194474200371809	1.7183570053152035	0.1615610207930074	0.5416948865413368	0.850311735320968	0.14165098697243664	0.556335273048383	1.2660223867338103	0.10409633351080345	0.8262946587648419	1.703078397066991	0.13937668690002042	0.6129068956864984	1.6948206772015009	0.08541319844178567	0.68762674006391	1.716041435829529	0.1238670681123805	0.8731086647010651	1.7321507188208929	0.31287929499288686	0.42774181479573015	0.3659947343273411	0.3717313222645054	0.2706689523556225	0.13486770741998105	0.3749286579720664	0.2874280755201801	0.29710703843227804	0.43780817726462795	0.499747072348243	0.44387715358101554	0.4571179901189135	0.45088553360578976	0.690011933147489	0.6680238370368379	0.48076588526475333	0.6355074688544115	0.7726092828191135	0.5098266251259056	0.560253078801942	0.7864140040841178	0.5247645855548981	0.5403513788623416	0.7734953521542494	0.5317226190796576	0.6020350973298415	0.16758916529253265	0.446312762510484	0.39557401444058315	0.08936796109860037	0.4939839170852226	0.6622506836512057	0.1254249646805564	0.4385778522162886	0.9112466793350456	0.17254280572315003	0.41654022858603273	0.997604869990776	0.15317743587673788	0.4441028423879203	1.035038945150237	0.10964478831207422	0.4190584393932405	1.018073039044606
151	2.849056603773585	0.32703981227519063	0.5400880588111369	0.8475321713346238	0.30270117740165203	0.6156768638488136	1.2697827056745832	0.3086128964352717	0.7527587814481644	1.6573867517074237	0.2984899238156364	0.6479364296155833	1.7056596653578222	0.36013804541783295	0.67535723068776	1.7094238476694903	0.30232061612777716	0.8196935845311318	1.7175900192633073	0.1594947522619361	0.539145624486226	0.8513738208103628	0.14155879396714677	0.555930103723314	1.266005309287938	0.10348041347723547	0.8253919374207934	1.7031873074198403	0.13975814261979247	0.6123788822609257	1.6948538960193427	0.08767526842720683	0.6820566828170423	1.7157231555975234	0.12260750003053145	0.8692628992241256	1.7333829926539854	0.31367574599134507	0.4274224083548992	0.36752546758715215	0.37421576565423936	0.27064136506290537	0.13785029948927063	0.3759398726712055	0.2882545548064781	0.29751908811854894	0.4374752865117184	0.503230156882157	0.4462074599210989	0.4570146665111683	0.447870725999749	0.6925985735445107	0.6659437536397079	0.49396605824232753	0.6377845571438335	0.77482868698848	0.53627210940284	0.5657529060570731	0.7885512186697212	0.5351707144694374	0.5432177643594618	0.7728735570436138	0.5447062203353007	0.6059988136653535	0.16794782189820964	0.44701782644996996	0.3967661288584147	0.08800002117571207	0.48849183606822477	0.6631423596157228	0.12119207045674028	0.4299304001708339	0.9106835941949447	0.16046000225393423	0.43574370205723356	1.003372369533069	0.14546339015891352	0.4559553856681962	1.0487936449150423	0.10078662767119467	0.4128043704050329	1.0216955053468808
152	2.8679245283018866	0.32695447290357554	0.5406476797192042	0.847517215373407	0.3054778479855083	0.6017309564372083	1.265214067239652	0.30839484274590423	0.7529263680708621	1.6574815283416542	0.2983438857489998	0.647473849430909	1.7032782002070874	0.3601212600255975	0.668805381632468	1.707021554672962	0.3001351581867866	0.819794715420437	1.7171701893589173	0.1573881429724637	0.5357792991430849	0.8536460003953381	0.14162309423630778	0.5569095025638732	1.269104743077416	0.10315996479033933	0.8259058443370221	1.7033722148434474	0.13998812032386868	0.6123831720799764	1.6948430723981605	0.08905251963910404	0.6783533496598146	1.7163532376823978	0.12146394227033769	0.8639339893991342	1.7361615433643196	0.3142422940442306	0.42728861498012083	0.3698951829834493	0.37600811076305485	0.27157255218636034	0.14030509395029228	0.3766715397608979	0.288000213308224	0.29814676104513754	0.4361980547584493	0.5017935614154834	0.4493698445569179	0.4569503420090074	0.44372199457020944	0.693675245098712	0.6624565835825129	0.496260323813063	0.6409864842711025	0.7747651504119688	0.5517844407293382	0.5724321793380356	0.7892501972992665	0.5393246047795808	0.5513768086966117	0.7680224115418067	0.5479096789780704	0.6102992539866926	0.16854073498894268	0.4479691818846878	0.3972242269497851	0.08574973926230478	0.4845161784022869	0.6644324990589565	0.11452569938596464	0.4196850676575493	0.9101084301414495	0.15078385356647367	0.4496288600853249	1.0086330919544033	0.13859345361421227	0.45337468449280965	1.058214492270001	0.08932303392524463	0.41046712592686196	1.0257405973641902
153	2.8867924528301887	0.32729949121372115	0.5393741919019086	0.8475265078901959	0.3074091243287928	0.5824474673596292	1.2605209870742684	0.3084305727769041	0.7527736538799147	1.657414805129262	0.29823744791341306	0.6469919176207145	1.702350941440666	0.35982841436858254	0.6641401132159555	1.7052839970345053	0.2995273726769743	0.8186678606861004	1.7158186990338762	0.1553967955881983	0.5307204975973934	0.8558543823500836	0.1415443837017406	0.5561334713729817	1.2741741777232656	0.10311684162998519	0.8262657624578673	1.7035231038055574	0.1400160160814519	0.6121780204675401	1.6956157523682127	0.08928755089026494	0.6776586977206966	1.7173113665730444	0.1209124194623169	0.8599609278732938	1.7386889445990197	0.31194902404502367	0.43034915894067904	0.37254553369760657	0.3743295458210165	0.27693410368718985	0.1412941800771961	0.3752743667963949	0.2879101232677292	0.299212350352772	0.43270149344084774	0.5008914223467519	0.45277216970357825	0.45524439271164097	0.440873973262767	0.6919435388455455	0.6576767710384197	0.4897511870555101	0.6434464442923621	0.7726953004054338	0.5626022641741728	0.5765602201049802	0.7880373647088178	0.5401559589334533	0.5607278644655295	0.7578129199174555	0.5393431323082425	0.6140951421879702	0.16804901608552952	0.4475098019717601	0.39840469613646423	0.08243864970247002	0.48550405125156504	0.6662651286692517	0.10285470662871014	0.4150362981968526	0.9114548022467555	0.1438387267738519	0.4551222380699984	1.0149070712435635	0.1307111847988719	0.4382789403136866	1.0625426343580893	0.07428530430234424	0.41958658709015106	1.0329103961082473
